HIERARCHY
ROOT root
{
	OFFSET 0.00 0.00 0.00
	CHANNELS 6 Xposition Yposition Zposition Zrotation Xrotation Yrotation
	JOINT lowerback
	{
		OFFSET 0 0 0
		CHANNELS 6 Xposition Yposition Zposition Zrotation Xrotation Yrotation
		JOINT upperback
		{
			OFFSET -0.214371 12.3768 -1.12219
			CHANNELS 6 Xposition Yposition Zposition Zrotation Xrotation Yrotation
			JOINT thorax
			{
				OFFSET -0.00137213 12.3873 0.296195
				CHANNELS 6 Xposition Yposition Zposition Zrotation Xrotation Yrotation
				JOINT lowerneck
				{
					OFFSET 0.0883157 12.5016 0.82912
					CHANNELS 6 Xposition Yposition Zposition Zrotation Xrotation Yrotation
					JOINT upperneck
					{
						OFFSET -1 10.1794 0.943522
						CHANNELS 6 Xposition Yposition Zposition Zrotation Xrotation Yrotation
						JOINT head
						{
							OFFSET 0.667525 10.2797 -1.57149
							CHANNELS 6 Xposition Yposition Zposition Zrotation Xrotation Yrotation
							End Site
							{
								OFFSET 0 0 0
							}
						}
					}
				}
				JOINT lclavicle
				{
					OFFSET 0.0883157 12.5016 0.82912
					CHANNELS 6 Xposition Yposition Zposition Zrotation Xrotation Yrotation
					JOINT lhumerus
					{
						OFFSET 20.61 4.45006 1.43784
						CHANNELS 6 Xposition Yposition Zposition Zrotation Xrotation Yrotation
						JOINT lradius
						{
							OFFSET 0 -30.3438 0
							CHANNELS 6 Xposition Yposition Zposition Zrotation Xrotation Yrotation
							JOINT lwrist
							{
								OFFSET 0 -18.964 0
								CHANNELS 6 Xposition Yposition Zposition Zrotation Xrotation Yrotation
								JOINT lhand
								{
									OFFSET 0 -9.48199 0
									CHANNELS 6 Xposition Yposition Zposition Zrotation Xrotation Yrotation
									JOINT lfingers
									{
										OFFSET 0 -3.17138 0
										CHANNELS 6 Xposition Yposition Zposition Zrotation Xrotation Yrotation
										End Site
										{
											OFFSET 0 -2.55685 0
										}
									}
								}
								JOINT lthumb
								{
									OFFSET 0 -9.48199 0
									CHANNELS 6 Xposition Yposition Zposition Zrotation Xrotation Yrotation
									End Site
									{
										OFFSET 0 -3.67114 0
									}
								}
							}
						}
					}
				}
				JOINT rclavicle
				{
					OFFSET 0.0883157 12.5016 0.82912
					CHANNELS 6 Xposition Yposition Zposition Zrotation Xrotation Yrotation
					JOINT rhumerus
					{
						OFFSET -20.61 4.45 1.44
						CHANNELS 6 Xposition Yposition Zposition Zrotation Xrotation Yrotation
						JOINT rradius
						{
							OFFSET 0 -29.5102 0
							CHANNELS 6 Xposition Yposition Zposition Zrotation Xrotation Yrotation
							JOINT rwrist
							{
								OFFSET 0 -19.2342 0
								CHANNELS 6 Xposition Yposition Zposition Zrotation Xrotation Yrotation
								JOINT rhand
								{
									OFFSET 0 -9.61712 0
									CHANNELS 6 Xposition Yposition Zposition Zrotation Xrotation Yrotation
									JOINT rfingers
									{
										OFFSET 0 -3.29215 0
										CHANNELS 6 Xposition Yposition Zposition Zrotation Xrotation Yrotation
										End Site
										{
											OFFSET 0 -2.557 0
										}
									}
								}
								JOINT rthumb
								{
									OFFSET 0 -9.61712 0
									CHANNELS 6 Xposition Yposition Zposition Zrotation Xrotation Yrotation
									End Site
									{
										OFFSET 0 -3.671 0
									}
								}
							}
						}
					}
				}
			}
		}
	}
	JOINT rfemur
	{
		OFFSET -8.46272 -9.62775 4.76248
		CHANNELS 6 Xposition Yposition Zposition Zrotation Xrotation Yrotation
		JOINT rtibia
		{
			OFFSET 1.00552e-005 -38.0331 0
			CHANNELS 6 Xposition Yposition Zposition Zrotation Xrotation Yrotation
			JOINT rfoot
			{
				OFFSET 1.14428e-005 -43.2815 0
				CHANNELS 6 Xposition Yposition Zposition Zrotation Xrotation Yrotation
				JOINT rtoes
				{
					OFFSET 0 -14.1868 -3.08763
					CHANNELS 6 Xposition Yposition Zposition Zrotation Xrotation Yrotation
					End Site
					{
						OFFSET 0 -7.27332 0
					}
				}
			}
		}
	}
	JOINT lfemur
	{
		OFFSET 9.10607 -9.62778 4.76249
		CHANNELS 6 Xposition Yposition Zposition Zrotation Xrotation Yrotation
		JOINT ltibia
		{
			OFFSET -1.01399e-005 -38.3535 0
			CHANNELS 6 Xposition Yposition Zposition Zrotation Xrotation Yrotation
			JOINT lfoot
			{
				OFFSET -1.12937e-005 -42.7176 0
				CHANNELS 6 Xposition Yposition Zposition Zrotation Xrotation Yrotation
				JOINT ltoes
				{
					OFFSET 0 -13.9965 -2.83857
					CHANNELS 6 Xposition Yposition Zposition Zrotation Xrotation Yrotation
					End Site
					{
						OFFSET 0 -7.16348 0
					}
				}
			}
		}
	}
}
MOTION
Frames: 9
Frame Time: 0.00833333
12.1423	85.3739	111.737	10.2911	19.3482	-38.7338	0 0 0 -2.88853	33.5835	4.79151	-0.214371 12.3768 -1.12219 -1.87494	15.307	2.19357	-0.00137213 12.3873 0.296195 -1.84124	-0.368755	0.0645015	0.0883157 12.5016 0.82912 4.37753	-2.8793	7.2845	-1 10.1794 0.943522 -6.92204	-26.8139	7.96324	0.667525 10.2797 -1.57149 -4.01665	-7.17733	3.33225	0.0883157 12.5016 0.82912 -15	0	-0	20.61 4.45006 1.43784 69.0928	-45.007	-140.38	0 -30.3438 0 -180	68.6105	180	0 -18.964 0 1.34575e-014	-2.78386e-015	-113.375	0 -9.48199 0 1.22245	4.37968	-2.58917e-014	0 -3.17138 0 -0	7.12502	-0	0 -9.48199 0 25	15	-1.36605e-015	0.0883157 12.5016 0.82912 15	0	-0	-20.61 4.45 1.44 -63.627	-51.9972	159.615	0 -29.5102 0 -180	80.0303	180	0 -19.2342 0 1.31306e-015	-4.08688e-015	125.623	0 -9.61712 0 1.22	4.38	-0	0 -3.29215 0 -0	7.12502	-0	0 -9.61712 0 25	15	-7.97034e-015	-8.46272 -9.62775 4.76248 -16.0394	-29.202	-4.79096	1.00552e-005 -38.0331 0 -0	64.4457	-0	1.14428e-005 -43.2815 0 -26.5704	-76.4263	-27.2253	0 -14.1868 -3.08763 -0	-67.214	-0	9.10607 -9.62778 4.76249 19.1089	-69.6988	28.1661	-1.01399e-005 -38.3535 0 -0	68.2513	-0	-1.12937e-005 -42.7176 0 34.0691	-75.763	34.9039	0 -13.9965 -2.83857 -0	-23.3441	-0
12.1495	85.3497	112.021	10.1939	19.4052	-38.6991	0 0 0 -2.90051	33.5616	4.81564	-0.214371 12.3768 -1.12219 -1.8833	15.3067	2.22199	-0.00137213 12.3873 0.296195 -1.85176	-0.359996	0.0783446	0.0883157 12.5016 0.82912 4.44085	-2.90501	7.27692	-1 10.1794 0.943522 -6.91151	-26.7658	7.96049	0.667525 10.2797 -1.57149 -4.01896	-7.15474	3.3258	0.0883157 12.5016 0.82912 -15	0	-0	20.61 4.45006 1.43784 69.1067	-45.0798	-140.389	0 -30.3438 0 -180	68.6961	180	0 -18.964 0 1.3457e-014	-2.7851e-015	-113.386	0 -9.48199 0 1.22245	4.37968	-2.58917e-014	0 -3.17138 0 -0	7.12502	-0	0 -9.48199 0 25	15	-1.36605e-015	0.0883157 12.5016 0.82912 15	0	-0	-20.61 4.45 1.44 -63.496	-51.926	159.743	0 -29.5102 0 -180	80.0425	180	0 -19.2342 0 1.3167e-015	-4.09195e-015	125.674	0 -9.61712 0 1.22	4.38	-0	0 -3.29215 0 -0	7.12502	-0	0 -9.61712 0 25	15	-7.97034e-015	-8.46272 -9.62775 4.76248 -16.102	-29.2475	-4.77636	1.00552e-005 -38.0331 0 -0	64.7162	-0	1.14428e-005 -43.2815 0 -25.0994	-75.9134	-25.778	0 -14.1868 -3.08763 -0	-66.7526	-0	9.10607 -9.62778 4.76249 18.7793	-69.6616	27.7744	-1.01399e-005 -38.3535 0 -0	68.4423	-0	-1.12937e-005 -42.7176 0 34.9881	-75.9143	35.8146	0 -13.9965 -2.83857 -0	-23.33	-0
12.1575	85.3254	112.305	10.0946	19.4566	-38.6573	0 0 0 -2.90377	33.5409	4.83839	-0.214371 12.3768 -1.12219 -1.89675	15.307	2.25074	-0.00137213 12.3873 0.296195 -1.86994	-0.348772	0.0928595	0.0883157 12.5016 0.82912 4.51627	-2.93399	7.26699	-1 10.1794 0.943522 -6.90472	-26.7141	7.95338	0.667525 10.2797 -1.57149 -4.0222	-7.12995	3.31681	0.0883157 12.5016 0.82912 -15	0	-0	20.61 4.45006 1.43784 69.1317	-45.1668	-140.392	0 -30.3438 0 -180	68.7836	180	0 -18.964 0 1.34562e-014	-2.7869e-015	-113.402	0 -9.48199 0 1.22245	4.37968	-2.58917e-014	0 -3.17138 0 -0	7.12502	-0	0 -9.48199 0 25	15	-1.36605e-015	0.0883157 12.5016 0.82912 15	0	-0	-20.61 4.45 1.44 -63.3595	-51.8383	159.864	0 -29.5102 0 -180	80.0498	180	0 -19.2342 0 1.31963e-015	-4.09603e-015	125.715	0 -9.61712 0 1.22	4.38	-0	0 -3.29215 0 -0	7.12502	-0	0 -9.61712 0 25	15	-7.97034e-015	-8.46272 -9.62775 4.76248 -16.1773	-29.3256	-4.76167	1.00552e-005 -38.0331 0 -0	65.0439	-0	1.14428e-005 -43.2815 0 -23.628	-75.3362	-24.3326	0 -14.1868 -3.08763 -0	-66.2055	-0	9.10607 -9.62778 4.76249 18.4356	-69.6151	27.3772	-1.01399e-005 -38.3535 0 -0	68.6265	-0	-1.12937e-005 -42.7176 0 35.9243	-76.0612	36.7423	0 -13.9965 -2.83857 -0	-23.3126	-0
12.1671	85.3022	112.588	9.99319	19.5002	-38.6078	0 0 0 -2.8984	33.5244	4.85987	-0.214371 12.3768 -1.12219 -1.91373	15.3119	2.27957	-0.00137213 12.3873 0.296195 -1.89595	-0.335933	0.107836	0.0883157 12.5016 0.82912 4.60363	-2.96666	7.2545	-1 10.1794 0.943522 -6.90163	-26.6589	7.94208	0.667525 10.2797 -1.57149 -4.03011	-7.10302	3.30502	0.0883157 12.5016 0.82912 -15	0	-0	20.61 4.45006 1.43784 69.1671	-45.2693	-140.391	0 -30.3438 0 -180	68.8731	180	0 -18.964 0 1.34553e-014	-2.78914e-015	-113.422	0 -9.48199 0 1.22245	4.37968	-2.58917e-014	0 -3.17138 0 -0	7.12502	-0	0 -9.48199 0 25	15	-1.36605e-015	0.0883157 12.5016 0.82912 15	0	-0	-20.61 4.45 1.44 -63.2202	-51.7339	159.974	0 -29.5102 0 -180	80.0523	180	0 -19.2342 0 1.32177e-015	-4.09901e-015	125.745	0 -9.61712 0 1.22	4.38	-0	0 -3.29215 0 -0	7.12502	-0	0 -9.61712 0 25	15	-7.97034e-015	-8.46272 -9.62775 4.76248 -16.2676	-29.4384	-4.74578	1.00552e-005 -38.0331 0 -0	65.4329	-0	1.14428e-005 -43.2815 0 -22.179	-74.6844	-22.9127	0 -14.1868 -3.08763 -0	-65.5594	-0	9.10607 -9.62778 4.76249 18.0667	-69.5585	26.9623	-1.01399e-005 -38.3535 0 -0	68.8036	-0	-1.12937e-005 -42.7176 0 36.8863	-76.202	37.6956	0 -13.9965 -2.83857 -0	-23.2926	-0
12.1782	85.2808	112.869	9.8895	19.5334	-38.551	0 0 0 -2.88526	33.5153	4.8805	-0.214371 12.3768 -1.12219 -1.93406	15.3194	2.3083	-0.00137213 12.3873 0.296195 -1.92957	-0.322532	0.123093	0.0883157 12.5016 0.82912 4.70223	-3.00333	7.23935	-1 10.1794 0.943522 -6.90265	-26.6008	7.9262	0.667525 10.2797 -1.57149 -4.04042	-7.07405	3.29034	0.0883157 12.5016 0.82912 -15	0	-0	20.61 4.45006 1.43784 69.2121	-45.3879	-140.387	0 -30.3438 0 -180	68.9644	180	0 -18.964 0 1.3454e-014	-2.79195e-015	-113.447	0 -9.48199 0 1.22245	4.37968	-2.58917e-014	0 -3.17138 0 -0	7.12502	-0	0 -9.48199 0 25	15	-1.36605e-015	0.0883157 12.5016 0.82912 15	0	-0	-20.61 4.45 1.44 -63.0808	-51.6137	160.072	0 -29.5102 0 -180	80.0505	180	0 -19.2342 0 1.32335e-015	-4.1012e-015	125.767	0 -9.61712 0 1.22	4.38	-0	0 -3.29215 0 -0	7.12502	-0	0 -9.61712 0 25	15	-7.97034e-015	-8.46272 -9.62775 4.76248 -16.374	-29.5883	-4.72696	1.00552e-005 -38.0331 0 -0	65.8867	-0	1.14428e-005 -43.2815 0 -20.7786	-73.947	-21.5458	0 -14.1868 -3.08763 -0	-64.8027	-0	9.10607 -9.62778 4.76249 17.6635	-69.4904	26.519	-1.01399e-005 -38.3535 0 -0	68.9733	-0	-1.12937e-005 -42.7176 0 37.881	-76.335	38.6817	0 -13.9965 -2.83857 -0	-23.2717	-0
12.1913	85.2588	113.146	9.78338	19.5543	-38.4882	0 0 0 -2.86585	33.5168	4.90109	-0.214371 12.3768 -1.12219 -1.95754	15.3293	2.337	-0.00137213 12.3873 0.296195 -1.97016	-0.309707	0.138506	0.0883157 12.5016 0.82912 4.81092	-3.04421	7.22158	-1 10.1794 0.943522 -6.90837	-26.5398	7.90554	0.667525 10.2797 -1.57149 -4.05312	-7.04316	3.2728	0.0883157 12.5016 0.82912 -15	0	-0	20.61 4.45006 1.43784 69.2653	-45.5222	-140.379	0 -30.3438 0 -180	69.057	180	0 -18.964 0 1.34527e-014	-2.7951e-015	-113.475	0 -9.48199 0 1.22245	4.37968	-2.58917e-014	0 -3.17138 0 -0	7.12502	-0	0 -9.48199 0 25	15	-1.36605e-015	0.0883157 12.5016 0.82912 15	0	-0	-20.61 4.45 1.44 -62.9442	-51.4789	160.156	0 -29.5102 0 -180	80.0452	180	0 -19.2342 0 1.32428e-015	-4.10249e-015	125.78	0 -9.61712 0 1.22	4.38	-0	0 -3.29215 0 -0	7.12502	-0	0 -9.61712 0 25	15	-7.97034e-015	-8.46272 -9.62775 4.76248 -16.4972	-29.7775	-4.70299	1.00552e-005 -38.0331 0 -0	66.4081	-0	1.14428e-005 -43.2815 0 -19.4537	-73.1137	-20.2604	0 -14.1868 -3.08763 -0	-63.9262	-0	9.10607 -9.62778 4.76249 17.2198	-69.4096	26.0392	-1.01399e-005 -38.3535 0 -0	69.1359	-0	-1.12937e-005 -42.7176 0 38.9138	-76.4586	39.7062	0 -13.9965 -2.83857 -0	-23.2526	-0
12.2062	85.2368	113.418	9.67461	19.5606	-38.4212	0 0 0 -2.84221	33.5316	4.92268	-0.214371 12.3768 -1.12219 -1.98384	15.3416	2.36597	-0.00137213 12.3873 0.296195 -2.01681	-0.298551	0.154025	0.0883157 12.5016 0.82912 4.92829	-3.08929	7.20138	-1 10.1794 0.943522 -6.91947	-26.4763	7.88008	0.667525 10.2797 -1.57149 -4.06819	-7.01051	3.25256	0.0883157 12.5016 0.82912 -15	0	-0	20.61 4.45006 1.43784 69.3253	-45.6709	-140.369	0 -30.3438 0 -180	69.1502	180	0 -18.964 0 1.34513e-014	-2.79836e-015	-113.504	0 -9.48199 0 1.22245	4.37968	-2.58917e-014	0 -3.17138 0 -0	7.12502	-0	0 -9.48199 0 25	15	-1.36605e-015	0.0883157 12.5016 0.82912 15	0	-0	-20.61 4.45 1.44 -62.8136	-51.3314	160.226	0 -29.5102 0 -180	80.0377	180	0 -19.2342 0 1.32471e-015	-4.10309e-015	125.786	0 -9.61712 0 1.22	4.38	-0	0 -3.29215 0 -0	7.12502	-0	0 -9.61712 0 25	15	-7.97034e-015	-8.46272 -9.62775 4.76248 -16.6367	-30.0082	-4.6714	1.00552e-005 -38.0331 0 -0	66.9985	-0	1.14428e-005 -43.2815 0 -18.2294	-72.1759	-19.0835	0 -14.1868 -3.08763 -0	-62.9242	-0	9.10607 -9.62778 4.76249 16.7325	-69.3141	25.5179	-1.01399e-005 -38.3535 0 -0	69.2917	-0	-1.12937e-005 -42.7176 0 39.9888	-76.571	40.7733	0 -13.9965 -2.83857 -0	-23.2386	-0
12.2235	85.2142	113.688	9.56298	19.5509	-38.3527	0 0 0 -2.81669	33.5621	4.9465	-0.214371 12.3768 -1.12219 -2.01258	15.3563	2.39566	-0.00137213 12.3873 0.296195 -2.06837	-0.289981	0.169666	0.0883157 12.5016 0.82912 5.05281	-3.13833	7.17904	-1 10.1794 0.943522 -6.93672	-26.4107	7.84999	0.667525 10.2797 -1.57149 -4.08566	-6.97626	3.22991	0.0883157 12.5016 0.82912 -15	0	-0	20.61 4.45006 1.43784 69.3905	-45.8323	-140.357	0 -30.3438 0 -180	69.243	180	0 -18.964 0 1.34499e-014	-2.8015e-015	-113.532	0 -9.48199 0 1.22245	4.37968	-2.58917e-014	0 -3.17138 0 -0	7.12502	-0	0 -9.48199 0 25	15	-1.36605e-015	0.0883157 12.5016 0.82912 15	0	-0	-20.61 4.45 1.44 -62.6914	-51.1736	160.28	0 -29.5102 0 -180	80.0292	180	0 -19.2342 0 1.32492e-015	-4.10339e-015	125.789	0 -9.61712 0 1.22	4.38	-0	0 -3.29215 0 -0	7.12502	-0	0 -9.61712 0 25	15	-7.97034e-015	-8.46272 -9.62775 4.76248 -16.7912	-30.2829	-4.6299	1.00552e-005 -38.0331 0 -0	67.6585	-0	1.14428e-005 -43.2815 0 -17.1268	-71.1278	-18.0384	0 -14.1868 -3.08763 -0	-61.7946	-0	9.10607 -9.62778 4.76249 16.2013	-69.2026	24.9531	-1.01399e-005 -38.3535 0 -0	69.4412	-0	-1.12937e-005 -42.7176 0 41.1087	-76.6708	41.8858	0 -13.9965 -2.83857 -0	-23.2329	-0
12.2432	85.191	113.957	9.44833	19.524	-38.2853	0 0 0 -2.79169	33.6095	4.97374	-0.214371 12.3768 -1.12219 -2.04336	15.3732	2.42658	-0.00137213 12.3873 0.296195 -2.1236	-0.284627	0.185486	0.0883157 12.5016 0.82912 5.18291	-3.19079	7.15498	-1 10.1794 0.943522 -6.96075	-26.3433	7.81568	0.667525 10.2797 -1.57149 -4.10556	-6.94065	3.20523	0.0883157 12.5016 0.82912 -15	0	-0	20.61 4.45006 1.43784 69.4595	-46.0037	-140.343	0 -30.3438 0 -180	69.3344	180	0 -18.964 0 1.34487e-014	-2.80419e-015	-113.556	0 -9.48199 0 1.22245	4.37968	-2.58917e-014	0 -3.17138 0 -0	7.12502	-0	0 -9.48199 0 25	15	-1.36605e-015	0.0883157 12.5016 0.82912 15	0	-0	-20.61 4.45 1.44 -62.5801	-51.0081	160.319	0 -29.5102 0 -180	80.0216	180	0 -19.2342 0 1.32494e-015	-4.10341e-015	125.789	0 -9.61712 0 1.22	4.38	-0	0 -3.29215 0 -0	7.12502	-0	0 -9.61712 0 25	15	-7.97034e-015	-8.46272 -9.62775 4.76248 -16.9584	-30.6036	-4.57674	1.00552e-005 -38.0331 0 -0	68.387	-0	1.14428e-005 -43.2815 0 -16.1607	-69.9683	-17.1421	0 -14.1868 -3.08763 -0	-60.5397	-0	9.10607 -9.62778 4.76249 15.6288	-69.0736	24.3457	-1.01399e-005 -38.3535 0 -0	69.5852	-0	-1.12937e-005 -42.7176 0 42.2748	-76.7571	43.045	0 -13.9965 -2.83857 -0	-23.2383	-0
